<mxfile host="app.diagrams.net" modified="2024-03-13T17:11:37.324Z" agent="Mozilla/5.0 (Windows NT 10.0; Win64; x64) AppleWebKit/537.36 (KHTML, like Gecko) Chrome/122.0.0.0 Safari/537.36" etag="UZdrh3kN4F140WZSjz7H" version="24.0.5" type="device">
  <diagram name="Página-1" id="49Lw3GHj6urRW6spJXm3">
    <mxGraphModel dx="880" dy="478" grid="1" gridSize="10" guides="1" tooltips="1" connect="1" arrows="1" fold="1" page="1" pageScale="1" pageWidth="827" pageHeight="1169" math="0" shadow="0">
      <root>
        <mxCell id="0" />
        <mxCell id="1" parent="0" />
        <mxCell id="oFp4ymU4wIqLpWRSEkk9-6" style="edgeStyle=orthogonalEdgeStyle;rounded=0;orthogonalLoop=1;jettySize=auto;html=1;entryX=0;entryY=0.5;entryDx=0;entryDy=0;" edge="1" parent="1" source="oFp4ymU4wIqLpWRSEkk9-1" target="oFp4ymU4wIqLpWRSEkk9-5">
          <mxGeometry relative="1" as="geometry" />
        </mxCell>
        <mxCell id="oFp4ymU4wIqLpWRSEkk9-1" value="Paciente" style="shape=umlActor;verticalLabelPosition=bottom;verticalAlign=top;html=1;outlineConnect=0;" vertex="1" parent="1">
          <mxGeometry x="80" y="80" width="30" height="60" as="geometry" />
        </mxCell>
        <mxCell id="oFp4ymU4wIqLpWRSEkk9-8" style="edgeStyle=orthogonalEdgeStyle;rounded=0;orthogonalLoop=1;jettySize=auto;html=1;entryX=0;entryY=0.5;entryDx=0;entryDy=0;" edge="1" parent="1" source="oFp4ymU4wIqLpWRSEkk9-3" target="oFp4ymU4wIqLpWRSEkk9-7">
          <mxGeometry relative="1" as="geometry" />
        </mxCell>
        <mxCell id="oFp4ymU4wIqLpWRSEkk9-3" value="Atendente" style="shape=umlActor;verticalLabelPosition=bottom;verticalAlign=top;html=1;outlineConnect=0;" vertex="1" parent="1">
          <mxGeometry x="80" y="240" width="30" height="60" as="geometry" />
        </mxCell>
        <mxCell id="oFp4ymU4wIqLpWRSEkk9-15" style="edgeStyle=orthogonalEdgeStyle;rounded=0;orthogonalLoop=1;jettySize=auto;html=1;exitX=0.5;exitY=0.5;exitDx=0;exitDy=0;exitPerimeter=0;entryX=1;entryY=0.5;entryDx=0;entryDy=0;" edge="1" parent="1" source="oFp4ymU4wIqLpWRSEkk9-4" target="oFp4ymU4wIqLpWRSEkk9-13">
          <mxGeometry relative="1" as="geometry" />
        </mxCell>
        <mxCell id="oFp4ymU4wIqLpWRSEkk9-4" value="Médico" style="shape=umlActor;verticalLabelPosition=bottom;verticalAlign=top;html=1;outlineConnect=0;" vertex="1" parent="1">
          <mxGeometry x="540" y="80" width="30" height="60" as="geometry" />
        </mxCell>
        <mxCell id="oFp4ymU4wIqLpWRSEkk9-19" style="edgeStyle=orthogonalEdgeStyle;rounded=0;orthogonalLoop=1;jettySize=auto;html=1;entryX=0;entryY=0.5;entryDx=0;entryDy=0;" edge="1" parent="1" source="oFp4ymU4wIqLpWRSEkk9-5" target="oFp4ymU4wIqLpWRSEkk9-18">
          <mxGeometry relative="1" as="geometry" />
        </mxCell>
        <mxCell id="oFp4ymU4wIqLpWRSEkk9-5" value="Verifica Disponibilidade Data e horário" style="ellipse;whiteSpace=wrap;html=1;" vertex="1" parent="1">
          <mxGeometry x="150" y="75" width="90" height="70" as="geometry" />
        </mxCell>
        <mxCell id="oFp4ymU4wIqLpWRSEkk9-9" style="edgeStyle=orthogonalEdgeStyle;rounded=0;orthogonalLoop=1;jettySize=auto;html=1;entryX=0.5;entryY=1;entryDx=0;entryDy=0;" edge="1" parent="1" source="oFp4ymU4wIqLpWRSEkk9-7" target="oFp4ymU4wIqLpWRSEkk9-5">
          <mxGeometry relative="1" as="geometry" />
        </mxCell>
        <mxCell id="oFp4ymU4wIqLpWRSEkk9-7" value="Atende o Paciente para Agendamento" style="ellipse;whiteSpace=wrap;html=1;" vertex="1" parent="1">
          <mxGeometry x="150" y="235" width="90" height="70" as="geometry" />
        </mxCell>
        <mxCell id="oFp4ymU4wIqLpWRSEkk9-14" style="edgeStyle=orthogonalEdgeStyle;rounded=0;orthogonalLoop=1;jettySize=auto;html=1;entryX=0;entryY=0.5;entryDx=0;entryDy=0;" edge="1" parent="1" source="oFp4ymU4wIqLpWRSEkk9-10" target="oFp4ymU4wIqLpWRSEkk9-13">
          <mxGeometry relative="1" as="geometry" />
        </mxCell>
        <mxCell id="oFp4ymU4wIqLpWRSEkk9-10" value="Comparece a Consulta" style="ellipse;whiteSpace=wrap;html=1;" vertex="1" parent="1">
          <mxGeometry x="360" y="170" width="90" height="70" as="geometry" />
        </mxCell>
        <mxCell id="oFp4ymU4wIqLpWRSEkk9-13" value="Realiza o Atendimento ao Paciente" style="ellipse;whiteSpace=wrap;html=1;" vertex="1" parent="1">
          <mxGeometry x="390" y="75" width="90" height="70" as="geometry" />
        </mxCell>
        <mxCell id="oFp4ymU4wIqLpWRSEkk9-17" value="" style="endArrow=classic;html=1;rounded=0;" edge="1" parent="1" target="oFp4ymU4wIqLpWRSEkk9-10">
          <mxGeometry width="50" height="50" relative="1" as="geometry">
            <mxPoint x="530" y="160" as="sourcePoint" />
            <mxPoint x="360" y="150" as="targetPoint" />
          </mxGeometry>
        </mxCell>
        <mxCell id="oFp4ymU4wIqLpWRSEkk9-18" value="Realiza Agendamento" style="ellipse;whiteSpace=wrap;html=1;" vertex="1" parent="1">
          <mxGeometry x="270" y="90" width="90" height="70" as="geometry" />
        </mxCell>
        <mxCell id="oFp4ymU4wIqLpWRSEkk9-20" value="" style="endArrow=classic;html=1;rounded=0;entryX=-0.011;entryY=0.386;entryDx=0;entryDy=0;entryPerimeter=0;exitX=0.5;exitY=1;exitDx=0;exitDy=0;" edge="1" parent="1" source="oFp4ymU4wIqLpWRSEkk9-18" target="oFp4ymU4wIqLpWRSEkk9-10">
          <mxGeometry width="50" height="50" relative="1" as="geometry">
            <mxPoint x="390" y="280" as="sourcePoint" />
            <mxPoint x="440" y="230" as="targetPoint" />
          </mxGeometry>
        </mxCell>
        <mxCell id="oFp4ymU4wIqLpWRSEkk9-21" value="" style="endArrow=classic;html=1;rounded=0;entryX=1;entryY=0;entryDx=0;entryDy=0;" edge="1" parent="1" target="oFp4ymU4wIqLpWRSEkk9-5">
          <mxGeometry width="50" height="50" relative="1" as="geometry">
            <mxPoint x="530" y="75" as="sourcePoint" />
            <mxPoint x="580" y="25" as="targetPoint" />
          </mxGeometry>
        </mxCell>
      </root>
    </mxGraphModel>
  </diagram>
</mxfile>
